<svg width="380" height="120" viewBox="0 0 380 120" fill="none" xmlns="http://www.w3.org/2000/svg">
<g>
<path d="M109.263 45.9815C108.756 35.717 103.603 27.3977 95.0761 21.2807C87.9926 16.1991 76.2994 14.9411 67.536 18.6097C60.3589 21.6143 57.1877 25.777 54.5171 27.6164C52.4253 26.995 50.1484 24.2779 42.4996 23.6106C30.5813 22.5708 15.5788 31.8972 11.9551 46.3103C6.33026 68.6828 26.9763 83.3708 36.6577 83.3708C33.152 92.0501 21.9045 93.7192 26.1418 97.3913C30.3791 101.063 45.3399 105.397 58.7362 103.567C95.9571 98.4829 110.264 66.2211 109.263 45.9815Z" fill="url(#paint0_linear_5490_62317)"/>
<path d="M87.4257 32.4287C87.6746 31.8128 88.5466 31.8128 88.7955 32.4287C90.672 37.0727 94.3546 40.7552 98.9986 42.6318C99.6144 42.8807 99.6144 43.7527 98.9986 44.0015C94.3546 45.8781 90.672 49.5606 88.7955 54.2046C88.5466 54.8205 87.6746 54.8205 87.4257 54.2046C85.5492 49.5606 81.8667 45.8781 77.2227 44.0015C76.6068 43.7527 76.6068 42.8807 77.2227 42.6318C81.8667 40.7552 85.5492 37.0727 87.4257 32.4287Z" fill="white" style="fill:white;fill-opacity:1;"/>
<path d="M349.571 84.0074C335.161 84.0074 326.305 74.0248 327.03 60.983C327.513 49.3904 336.207 38.2002 350.456 38.2002C361.888 38.2002 369.214 45.6066 370.261 55.3477C370.502 58.0849 370.261 61.0635 369.536 64.0422C369.295 65.0083 368.57 65.4108 367.684 65.4108H338.944C339.91 70.5631 343.292 74.3468 349.893 74.3468C353.516 74.3468 358.265 73.4613 362.452 71.4487C363.498 70.8851 364.303 71.2877 364.545 72.3342L365.752 77.9695C365.913 78.8551 365.833 79.4991 365.108 80.0627C361.486 82.4778 356.253 84.0074 349.571 84.0074ZM339.186 57.6018H358.346C358.507 56.7968 358.587 55.7502 358.426 54.7037C358.104 51.081 355.609 48.2633 350.537 48.2633C344.902 48.2633 340.715 51.9665 339.186 57.6018Z" fill="#31D7CD" style="fill:#31D7CD;fill:color(display-p3 0.1922 0.8431 0.8039);fill-opacity:1;"/>
<path d="M303.938 84.0074C289.528 84.0074 280.672 74.0248 281.397 60.983C281.88 49.3904 290.574 38.2002 304.824 38.2002C316.255 38.2002 323.581 45.6066 324.628 55.3477C324.869 58.0849 324.628 61.0635 323.903 64.0422C323.662 65.0083 322.937 65.4108 322.052 65.4108H293.311C294.278 70.5631 297.659 74.3468 304.26 74.3468C307.883 74.3468 312.633 73.4613 316.819 71.4487C317.865 70.8851 318.67 71.2877 318.912 72.3342L320.12 77.9695C320.281 78.8551 320.2 79.4991 319.476 80.0627C315.853 82.4778 310.62 84.0074 303.938 84.0074ZM293.553 57.6018H312.713C312.874 56.7968 312.955 55.7502 312.794 54.7037C312.472 51.081 309.976 48.2633 304.904 48.2633C299.269 48.2633 295.083 51.9665 293.553 57.6018Z" fill="#31D7CD" style="fill:#31D7CD;fill:color(display-p3 0.1922 0.8431 0.8039);fill-opacity:1;"/>
<path d="M265.15 83.0401H255.892C254.846 83.0401 254.282 82.3155 254.443 81.269L259.676 49.7111H256.134C255.087 49.7111 254.524 48.9866 254.685 47.94L255.892 40.453C256.053 39.4065 256.697 39.004 257.663 39.004H261.286L261.608 36.6693C263.138 26.8477 268.773 22.5005 277.951 22.5005C280.768 22.5005 283.264 22.8225 285.277 23.3055C286.162 23.6276 286.565 24.1911 286.404 25.2376L285.277 32.4026C285.115 33.4491 284.471 33.8517 283.344 33.6101C282.056 33.2076 280.688 33.0466 279.48 33.0466C276.179 33.0466 274.408 34.5762 273.845 37.7964L273.603 39.004H282.459C283.505 39.004 284.069 39.7285 283.908 40.7751L282.7 48.262C282.539 49.3086 281.895 49.7111 280.929 49.7111H272.154L266.841 81.591C266.68 82.6375 266.116 83.0401 265.15 83.0401Z" fill="#31D7CD" style="fill:#31D7CD;fill:color(display-p3 0.1922 0.8431 0.8039);fill-opacity:1;"/>
<path d="M210.801 97.0503C206.936 97.0503 204.119 96.2452 201.543 94.7961C200.657 94.3131 200.496 93.5886 200.818 92.703L202.911 86.2626C203.233 85.2161 204.038 85.1356 205.004 85.4576C206.614 86.1016 209.03 86.7457 210.237 86.7457C212.089 86.7457 214.665 86.1016 216.194 83.3645L206.534 40.7775C206.292 39.7309 206.856 39.0063 207.983 39.0063H217.402C218.368 39.0063 218.932 39.4894 219.093 40.4554L224.003 68.9541L236.804 40.2139C237.126 39.4089 237.85 39.0063 238.736 39.0063H249.604C250.812 39.0063 251.295 39.8114 250.731 40.9385L228.27 84.089C223.52 93.025 218.288 97.0503 210.801 97.0503Z" fill="#31D7CD" style="fill:#31D7CD;fill:color(display-p3 0.1922 0.8431 0.8039);fill-opacity:1;"/>
<path d="M140.812 83.0413H131.554C130.508 83.0413 129.864 82.3168 130.025 81.2702L136.706 40.4543C136.867 39.4078 137.431 39.0052 138.397 39.0052H147.655C148.702 39.0052 149.265 39.7298 149.104 40.7763L148.621 43.594C151.519 40.8568 154.82 38.2002 159.731 38.2002C165.769 38.2002 170.035 41.3399 172.209 46.1702C175.59 41.5009 180.501 38.2002 187.183 38.2002C199.42 38.2002 202.64 47.6998 200.627 59.3729L197.005 81.5923C196.844 82.6388 196.28 83.0413 195.314 83.0413H186.056C185.009 83.0413 184.446 82.3168 184.607 81.2702L188.31 58.8899C189.035 54.1401 188.149 49.5514 182.031 49.5514C177.12 49.5514 174.463 53.0936 173.578 58.3264L169.794 81.5923C169.633 82.6388 169.069 83.0413 168.103 83.0413H158.845C157.799 83.0413 157.235 82.3168 157.396 81.2702L161.019 58.8899C161.663 54.0596 160.938 49.5514 154.74 49.5514C149.829 49.5514 147.172 53.0936 146.367 58.3264L142.503 81.5923C142.342 82.6388 141.778 83.0413 140.812 83.0413Z" fill="#31D7CD" style="fill:#31D7CD;fill:color(display-p3 0.1922 0.8431 0.8039);fill-opacity:1;"/>
</g>
<defs>
<linearGradient id="paint0_linear_5490_62317" x1="-5.28149" y1="26.7281" x2="41.7125" y2="113.222" gradientUnits="userSpaceOnUse">
<stop stop-color="#31D7CD" style="stop-color:#31D7CD;stop-color:color(display-p3 0.1922 0.8431 0.8039);stop-opacity:1;"/>
<stop offset="1" stop-color="#FFCFE7" style="stop-color:#FFCFE7;stop-color:color(display-p3 1.0000 0.8118 0.9059);stop-opacity:1;"/>
</linearGradient>
</defs>
</svg>
